# xmcd
#
# Track frame offsets: 
#        150
#        26475
#        46437
#        62975
#        82137
#        96450
#        109287
#        127087
#        142487
#        160700
#        173600
#
# Disc length: 2580 seconds
#
# Revision: 0
# Processed by: cddbd v1.4PL0 Copyright (c) Steve Scherf et al.
# Submitted via: ExactAudioCopy v0.90b4
#
DISCID=a40a120b
DTITLE=Boyz II Men - Cooley High Harmony
DYEAR=1995
DGENRE=R&B
TTITLE0=End of the road(LP Version)
TTITLE1=Please don't go
TTITLE2=Lonely heart
TTITLE3=Under Pressure
TTITLE4=It's so hard to say googbye to yesterday(Radio Version)
TTITLE5=It's so hard to say googbye to yesterday(Original Version)
TTITLE6=Motownphilly(Original Version)
TTITLE7=This is my heart
TTITLE8=Little things
TTITLE9=In the still of the Nite(I'll Remember)
TTITLE10=Sympin(Original Version)
EXTD=
EXTT0=
EXTT1=
EXTT2=
EXTT3=
EXTT4=
EXTT5=
EXTT6=
EXTT7=
EXTT8=
EXTT9=
EXTT10=
PLAYORDER=
